<svg xmlns="http://www.w3.org/2000/svg" xmlns:xlink="http://www.w3.org/1999/xlink"
    viewBox="0 0 128 128" width="128" height="128" preserveAspectRatio="xMidYMid meet"
    style="width: 100%; height: 100%; transform: translate3d(0px, 0px, 0px); content-visibility: visible;">
    <defs>
        <clipPath id="__lottie_element_1101">
            <rect width="128" height="128" x="0" y="0"></rect>
        </clipPath>
        <clipPath id="__lottie_element_1103">
            <path d="M0,0 L256,0 L256,256 L0,256z"></path>
        </clipPath>
    </defs>
    <g clip-path="url(#__lottie_element_1101)">
        <g clip-path="url(#__lottie_element_1103)" transform="matrix(0.5,0,0,0.5,0,0)" opacity="1"
            style="display: block;">
            <g transform="matrix(4,0,0,4,80,80)" opacity="1" style="display: none;">
                <g opacity="1" transform="matrix(1,0,0,1,12.07699966430664,12)">
                    <path fill="rgb(220,146,50)" fill-opacity="1"
                        d=" M-10.067999839782715,-9.16100025177002 C-10.067999839782715,-9.16100025177002 -10.076000213623047,-1.5379999876022339 -10.076000213623047,-1.5379999876022339 C-10.07699966430664,-1.3300000429153442 -9.916999816894531,-1.156999945640564 -9.710000038146973,-1.1410000324249268 C-9.710000038146973,-1.1410000324249268 4.948999881744385,-0.0010000000474974513 4.948999881744385,-0.0010000000474974513 C4.948999881744385,-0.0010000000474974513 -9.710000038146973,1.1390000581741333 -9.710000038146973,1.1390000581741333 C-9.916999816894531,1.1549999713897705 -10.07699966430664,1.3279999494552612 -10.076000213623047,1.5360000133514404 C-10.076000213623047,1.5360000133514404 -10.067999839782715,9.15999984741211 -10.067999839782715,9.15999984741211 C-10.067999839782715,9.784000396728516 -9.411999702453613,10.1899995803833 -8.854000091552734,9.90999984741211 C-8.854000091552734,9.90999984741211 9.458000183105469,0.7509999871253967 9.458000183105469,0.7509999871253967 C10.07699966430664,0.44200000166893005 10.07699966430664,-0.4410000145435333 9.458000183105469,-0.7509999871253967 C9.458000183105469,-0.7509999871253967 -8.854000091552734,-9.91100025177002 -8.854000091552734,-9.91100025177002 C-9.411999702453613,-10.1899995803833 -10.067999839782715,-9.78499984741211 -10.067999839782715,-9.16100025177002z"></path>
                </g>
            </g>
            <g transform="matrix(1,0,0,1,128,128)" opacity="1" style="display: block;">
                <g opacity="1" transform="matrix(4,0,0,4,0,0)">
                    <path fill="rgb(225,160,75)" fill-opacity="1"
                        d=" M18,0 C18,9.940999984741211 9.940999984741211,18 0,18 C-9.940999984741211,18 -18,9.940999984741211 -18,0 C-18,-9.940999984741211 -9.940999984741211,-18 0,-18 C9.940999984741211,-18 18,-9.940999984741211 18,0z"></path>
                </g>
            </g>
            <g transform="matrix(4,0,0,4,80,80)" opacity="1" style="display: none;">
                <g opacity="1" transform="matrix(1,0,0,1,12.07699966430664,12)">
                    <path fill="rgb(220,146,50)" fill-opacity="1"
                        d=" M-10.067999839782715,-9.16100025177002 C-10.067999839782715,-9.16100025177002 -10.076000213623047,-1.5379999876022339 -10.076000213623047,-1.5379999876022339 C-10.07699966430664,-1.3300000429153442 -9.916999816894531,-1.156999945640564 -9.710000038146973,-1.1410000324249268 C-9.710000038146973,-1.1410000324249268 4.948999881744385,-0.0010000000474974513 4.948999881744385,-0.0010000000474974513 C4.948999881744385,-0.0010000000474974513 -9.710000038146973,1.1390000581741333 -9.710000038146973,1.1390000581741333 C-9.916999816894531,1.1549999713897705 -10.07699966430664,1.3279999494552612 -10.076000213623047,1.5360000133514404 C-10.076000213623047,1.5360000133514404 -10.067999839782715,9.15999984741211 -10.067999839782715,9.15999984741211 C-10.067999839782715,9.784000396728516 -9.411999702453613,10.1899995803833 -8.854000091552734,9.90999984741211 C-8.854000091552734,9.90999984741211 9.458000183105469,0.7509999871253967 9.458000183105469,0.7509999871253967 C10.07699966430664,0.44200000166893005 10.07699966430664,-0.4410000145435333 9.458000183105469,-0.7509999871253967 C9.458000183105469,-0.7509999871253967 -8.854000091552734,-9.91100025177002 -8.854000091552734,-9.91100025177002 C-9.411999702453613,-10.1899995803833 -10.067999839782715,-9.78499984741211 -10.067999839782715,-9.16100025177002z"></path>
                </g>
            </g>
            <g transform="matrix(4,0,0,4,239.77020263671875,80)" opacity="1" style="display: none;">
                <g opacity="1" transform="matrix(1,0,0,1,12.07699966430664,12)">
                    <path fill="rgb(255,255,255)" fill-opacity="1"
                        d=" M-10.067999839782715,-9.16100025177002 C-10.067999839782715,-9.16100025177002 -10.076000213623047,-1.5379999876022339 -10.076000213623047,-1.5379999876022339 C-10.07699966430664,-1.3300000429153442 -9.916999816894531,-1.156999945640564 -9.710000038146973,-1.1410000324249268 C-9.710000038146973,-1.1410000324249268 4.948999881744385,-0.0010000000474974513 4.948999881744385,-0.0010000000474974513 C4.948999881744385,-0.0010000000474974513 -9.710000038146973,1.1390000581741333 -9.710000038146973,1.1390000581741333 C-9.916999816894531,1.1549999713897705 -10.07699966430664,1.3279999494552612 -10.076000213623047,1.5360000133514404 C-10.076000213623047,1.5360000133514404 -10.067999839782715,9.15999984741211 -10.067999839782715,9.15999984741211 C-10.067999839782715,9.784000396728516 -9.411999702453613,10.1899995803833 -8.854000091552734,9.90999984741211 C-8.854000091552734,9.90999984741211 9.458000183105469,0.7509999871253967 9.458000183105469,0.7509999871253967 C10.07699966430664,0.44200000166893005 10.07699966430664,-0.4410000145435333 9.458000183105469,-0.7509999871253967 C9.458000183105469,-0.7509999871253967 -8.854000091552734,-9.91100025177002 -8.854000091552734,-9.91100025177002 C-9.411999702453613,-10.1899995803833 -10.067999839782715,-9.78499984741211 -10.067999839782715,-9.16100025177002z"></path>
                </g>
            </g>
            <g transform="matrix(2,0,0,2,80,80)" opacity="1" style="display: block;">
                <g opacity="1" transform="matrix(1,0,0,1,24,24)">
                    <path fill="rgb(255,255,255)" fill-opacity="1"
                        d=" M-15.694000244140625,3.946000099182129 C-15.694000244140625,3.946000099182129 -7.057000160217285,12.6899995803833 -7.057000160217285,12.6899995803833 C-6.650000095367432,13.102999687194824 -5.988999843597412,13.102999687194824 -5.581999778747559,12.6899995803833 C-5.581999778747559,12.6899995803833 15.694999694824219,-8.85200023651123 15.694999694824219,-8.85200023651123 C16.101999282836914,-9.263999938964844 16.101999282836914,-9.932999610900879 15.694999694824219,-10.345999717712402 C15.694999694824219,-10.345999717712402 13.378999710083008,-12.690999984741211 13.378999710083008,-12.690999984741211 C12.970999717712402,-13.102999687194824 12.3100004196167,-13.102999687194824 11.902999877929688,-12.690999984741211 C11.902999877929688,-12.690999984741211 -6.318999767303467,5.757999897003174 -6.318999767303467,5.757999897003174 C-6.318999767303467,5.757999897003174 -11.902000427246094,0.10700000077486038 -11.902000427246094,0.10700000077486038 C-12.309000015258789,-0.3059999942779541 -12.970000267028809,-0.3059999942779541 -13.376999855041504,0.10700000077486038 C-13.376999855041504,0.10700000077486038 -15.694000244140625,2.4519999027252197 -15.694000244140625,2.4519999027252197 C-16.101999282836914,2.865000009536743 -16.101999282836914,3.5329999923706055 -15.694000244140625,3.946000099182129z"></path>
                </g>
            </g>
        </g>
    </g>
</svg>