<svg width="330" height="283" viewBox="0 0 330 283" fill="none" xmlns="http://www.w3.org/2000/svg">
    <path
        d="M322.982 0H7.01833C3.14221 0 0 2.18875 0 4.88871V278.111C0 280.811 3.14221 283 7.01833 283H322.982C326.858 283 330 280.811 330 278.111V4.88871C330 2.18875 326.858 0 322.982 0Z"
        fill="#F9F9F9" />
    <path
        d="M148.686 92.7232L85.6447 111.209C81.1945 112.514 78.6448 117.179 79.9497 121.63L100.681 192.329C101.986 196.779 106.651 199.329 111.101 198.024L174.143 179.538C178.593 178.233 181.143 173.567 179.838 169.117L159.107 98.4182C157.802 93.968 153.136 91.4183 148.686 92.7232Z"
        fill="#D1D1D1" />
    <path
        d="M238.121 79.938L143.454 52.2187C141.018 51.5054 138.465 52.902 137.752 55.3382L107.747 157.809C107.034 160.245 108.431 162.798 110.867 163.511L205.533 191.231C207.969 191.944 210.523 190.547 211.236 188.111L241.24 85.6406C241.954 83.2045 240.557 80.6514 238.121 79.938Z"
        fill="#E3E1DF" stroke="#F9F9F9" stroke-width="5.398" stroke-linecap="round"
        stroke-linejoin="round" />
    <path d="M228.895 88.2371L147.52 64.4097L125.687 138.973L207.062 162.801L228.895 88.2371Z"
        fill="#CCCCCC" stroke="#F9F9F9" stroke-width="2.25674" stroke-linecap="round"
        stroke-linejoin="round" />
    <path d="M228.895 88.2371L147.52 64.4097L137.332 99.2062L218.707 123.034L228.895 88.2371Z"
        fill="white" stroke="#F9F9F9" stroke-width="2.25674" stroke-linecap="round"
        stroke-linejoin="round" />
    <path fill-rule="evenodd" clip-rule="evenodd"
        d="M142.302 100.662L151.273 93.6567L163.494 89.1105L165.224 92.9587L169.357 87.2094L170.861 87.1133L174.435 83.0849L195.527 121.644"
        fill="#CCCCCC" />
    <path
        d="M142.302 100.662L151.273 93.6567L163.494 89.1105L165.224 92.9587L169.357 87.2094L170.861 87.1133L174.435 83.0849L195.527 121.644"
        stroke="#F9F9F9" stroke-width="2.25674" stroke-linecap="round" stroke-linejoin="round" />
    <path fill-rule="evenodd" clip-rule="evenodd"
        d="M174.435 83.0848C174.314 86.0132 174.108 88.9381 173.819 91.8547C173.6 94.0682 173.332 96.2769 173.016 98.4787L169.707 96.2218L163.494 89.1104L162.124 97.0614L160.653 101.09L160.845 106.611L173.542 108.214L188.496 108.791L184.333 93.6409L182.001 95.6448L178.58 90.6626L174.435 83.0848Z"
        fill="#B3B3B3" stroke="#F9F9F9" stroke-width="2.25674" stroke-linecap="round"
        stroke-linejoin="round" />
    <path fill-rule="evenodd" clip-rule="evenodd"
        d="M160.731 111.455L177.912 103.096L181.448 102.389L187.511 96.215L192.863 93.8779L213.955 132.437"
        fill="#CCCCCC" />
    <path
        d="M160.731 111.455L177.912 103.096L181.448 102.389L187.511 96.215L192.863 93.8779L213.955 132.437"
        stroke="#F9F9F9" stroke-width="2.25674" stroke-linecap="round" stroke-linejoin="round" />
    <path fill-rule="evenodd" clip-rule="evenodd"
        d="M192.863 93.8779L194.892 109.029L193.431 114.018L191.97 119.007L194.747 123.322C196.141 122.57 197.663 122.056 199.228 121.809C202.024 121.368 204.875 121.779 207.705 121.841C208.854 121.866 210.031 121.828 211.105 121.42C211.379 121.316 211.643 121.188 211.895 121.039L206.924 119.584L202.178 110.899L199.604 101.344L197.476 102.311L192.863 93.8779Z"
        fill="#B3B3B3" stroke="#F9F9F9" stroke-width="2.25674" stroke-linecap="round"
        stroke-linejoin="round" />
    <path fill-rule="evenodd" clip-rule="evenodd"
        d="M150.542 146.251C150.939 144.64 149.935 142.906 154.867 142.001C160.919 140.89 177.469 142.162 182.989 139.443C187.073 137.432 173.149 129.785 176.739 126.986C178.366 125.716 187.49 126.541 191.819 125.955C195.923 125.399 195.289 123.408 198.477 122.512C201.557 121.646 210.762 122.552 211.895 121.039C209.659 122.277 199.5 121.08 195.527 121.644C191.334 122.238 191.003 123.904 185.906 124.131C180.415 124.375 170.138 123.211 167.407 124.204C161.686 126.283 173.105 133.536 167.181 134.932C159.158 136.822 140.335 134.86 132.114 135.458C126.433 135.872 126.545 137.021 125.687 138.974"
        fill="white" />
    <path
        d="M150.542 146.251C150.939 144.64 149.935 142.906 154.867 142.001C160.919 140.89 177.469 142.162 182.989 139.443C187.073 137.432 173.149 129.785 176.739 126.986C178.366 125.716 187.49 126.541 191.819 125.955C195.923 125.399 195.289 123.408 198.477 122.512C201.557 121.646 210.762 122.552 211.895 121.039C209.659 122.277 199.5 121.08 195.527 121.644C191.334 122.238 191.003 123.904 185.906 124.131C180.415 124.375 170.138 123.211 167.407 124.204C161.686 126.283 173.105 133.536 167.181 134.932C159.158 136.822 140.335 134.86 132.114 135.458C126.433 135.872 126.545 137.021 125.687 138.974"
        stroke="#F9F9F9" stroke-width="2.25674" stroke-linecap="round" stroke-linejoin="round" />
    <path
        d="M109.947 240.212V230.155H112.49V240.212H109.947ZM106.19 236.455V233.912H116.247V236.455H106.19ZM122.334 241.206C121.638 241.206 121.018 241.085 120.473 240.844C119.929 240.598 119.498 240.235 119.18 239.757C118.868 239.274 118.712 238.673 118.712 237.953C118.712 237.347 118.823 236.838 119.045 236.426C119.268 236.014 119.571 235.683 119.955 235.432C120.338 235.181 120.774 234.991 121.261 234.864C121.754 234.736 122.27 234.646 122.81 234.594C123.444 234.527 123.955 234.466 124.344 234.409C124.732 234.348 125.014 234.258 125.189 234.139C125.364 234.021 125.452 233.846 125.452 233.614V233.571C125.452 233.121 125.31 232.773 125.026 232.527C124.746 232.281 124.348 232.158 123.832 232.158C123.288 232.158 122.855 232.278 122.533 232.52C122.211 232.757 121.998 233.055 121.893 233.415L119.095 233.188C119.237 232.525 119.517 231.952 119.933 231.469C120.35 230.981 120.887 230.607 121.545 230.347C122.208 230.081 122.975 229.949 123.847 229.949C124.453 229.949 125.033 230.02 125.587 230.162C126.145 230.304 126.64 230.524 127.071 230.822C127.507 231.121 127.85 231.504 128.101 231.973C128.352 232.437 128.477 232.993 128.477 233.642V241H125.608V239.487H125.523C125.348 239.828 125.113 240.129 124.82 240.389C124.526 240.645 124.173 240.846 123.761 240.993C123.349 241.135 122.874 241.206 122.334 241.206ZM123.2 239.118C123.645 239.118 124.038 239.03 124.379 238.855C124.72 238.675 124.988 238.434 125.182 238.131C125.376 237.828 125.473 237.484 125.473 237.101V235.943C125.378 236.005 125.248 236.062 125.082 236.114C124.921 236.161 124.739 236.206 124.536 236.249C124.332 236.286 124.128 236.322 123.925 236.355C123.721 236.384 123.536 236.41 123.371 236.433C123.016 236.485 122.705 236.568 122.44 236.682C122.175 236.795 121.969 236.949 121.822 237.143C121.676 237.333 121.602 237.57 121.602 237.854C121.602 238.266 121.751 238.58 122.05 238.798C122.353 239.011 122.736 239.118 123.2 239.118ZM134.844 241.178C134.016 241.178 133.265 240.964 132.593 240.538C131.925 240.107 131.395 239.475 131.002 238.642C130.614 237.804 130.42 236.777 130.42 235.56C130.42 234.31 130.621 233.27 131.023 232.442C131.426 231.608 131.961 230.986 132.629 230.574C133.301 230.157 134.037 229.949 134.837 229.949C135.448 229.949 135.957 230.053 136.364 230.261C136.776 230.465 137.108 230.721 137.359 231.028C137.614 231.331 137.808 231.63 137.941 231.923H138.033V226.455H141.052V241H138.069V239.253H137.941C137.799 239.556 137.598 239.857 137.337 240.155C137.082 240.448 136.748 240.692 136.336 240.886C135.929 241.08 135.432 241.178 134.844 241.178ZM135.803 238.77C136.291 238.77 136.703 238.637 137.039 238.372C137.38 238.102 137.64 237.726 137.82 237.243C138.005 236.76 138.097 236.194 138.097 235.545C138.097 234.897 138.007 234.333 137.827 233.855C137.647 233.377 137.387 233.008 137.046 232.747C136.705 232.487 136.291 232.357 135.803 232.357C135.306 232.357 134.887 232.491 134.546 232.761C134.205 233.031 133.947 233.405 133.772 233.884C133.597 234.362 133.509 234.916 133.509 235.545C133.509 236.18 133.597 236.741 133.772 237.229C133.952 237.712 134.21 238.09 134.546 238.365C134.887 238.635 135.306 238.77 135.803 238.77ZM147.559 241.178C146.731 241.178 145.98 240.964 145.308 240.538C144.64 240.107 144.11 239.475 143.717 238.642C143.329 237.804 143.135 236.777 143.135 235.56C143.135 234.31 143.336 233.27 143.738 232.442C144.141 231.608 144.676 230.986 145.343 230.574C146.016 230.157 146.752 229.949 147.552 229.949C148.163 229.949 148.672 230.053 149.079 230.261C149.491 230.465 149.823 230.721 150.074 231.028C150.329 231.331 150.523 231.63 150.656 231.923H150.748V226.455H153.767V241H150.784V239.253H150.656C150.514 239.556 150.313 239.857 150.052 240.155C149.797 240.448 149.463 240.692 149.051 240.886C148.644 241.08 148.146 241.178 147.559 241.178ZM148.518 238.77C149.006 238.77 149.418 238.637 149.754 238.372C150.095 238.102 150.355 237.726 150.535 237.243C150.72 236.76 150.812 236.194 150.812 235.545C150.812 234.897 150.722 234.333 150.542 233.855C150.362 233.377 150.102 233.008 149.761 232.747C149.42 232.487 149.006 232.357 148.518 232.357C148.021 232.357 147.602 232.491 147.261 232.761C146.92 233.031 146.662 233.405 146.487 233.884C146.312 234.362 146.224 234.916 146.224 235.545C146.224 236.18 146.312 236.741 146.487 237.229C146.667 237.712 146.925 238.09 147.261 238.365C147.602 238.635 148.021 238.77 148.518 238.77ZM160.883 241V230.091H163.909V241H160.883ZM162.403 228.685C161.953 228.685 161.567 228.536 161.245 228.237C160.928 227.934 160.77 227.572 160.77 227.151C160.77 226.734 160.928 226.376 161.245 226.078C161.567 225.775 161.953 225.624 162.403 225.624C162.853 225.624 163.236 225.775 163.554 226.078C163.876 226.376 164.037 226.734 164.037 227.151C164.037 227.572 163.876 227.934 163.554 228.237C163.236 228.536 162.853 228.685 162.403 228.685ZM166.332 241V230.091H169.216V232.016H169.344C169.571 231.376 169.95 230.872 170.48 230.503C171.01 230.134 171.645 229.949 172.384 229.949C173.132 229.949 173.768 230.136 174.294 230.51C174.82 230.879 175.17 231.381 175.345 232.016H175.459C175.681 231.391 176.084 230.891 176.666 230.517C177.253 230.138 177.947 229.949 178.747 229.949C179.765 229.949 180.591 230.273 181.226 230.922C181.865 231.566 182.185 232.48 182.185 233.663V241H179.166V234.26C179.166 233.654 179.005 233.199 178.683 232.896C178.361 232.593 177.959 232.442 177.476 232.442C176.927 232.442 176.498 232.617 176.19 232.967C175.883 233.313 175.729 233.77 175.729 234.338V241H172.795V234.196C172.795 233.661 172.642 233.235 172.334 232.918C172.031 232.6 171.631 232.442 171.134 232.442C170.797 232.442 170.494 232.527 170.224 232.697C169.959 232.863 169.749 233.098 169.592 233.401C169.436 233.699 169.358 234.049 169.358 234.452V241H166.332ZM187.685 241.206C186.989 241.206 186.369 241.085 185.825 240.844C185.28 240.598 184.849 240.235 184.532 239.757C184.219 239.274 184.063 238.673 184.063 237.953C184.063 237.347 184.174 236.838 184.397 236.426C184.62 236.014 184.923 235.683 185.306 235.432C185.69 235.181 186.125 234.991 186.613 234.864C187.105 234.736 187.621 234.646 188.161 234.594C188.796 234.527 189.307 234.466 189.695 234.409C190.084 234.348 190.365 234.258 190.54 234.139C190.716 234.021 190.803 233.846 190.803 233.614V233.571C190.803 233.121 190.661 232.773 190.377 232.527C190.098 232.281 189.7 232.158 189.184 232.158C188.639 232.158 188.206 232.278 187.884 232.52C187.562 232.757 187.349 233.055 187.245 233.415L184.447 233.188C184.589 232.525 184.868 231.952 185.285 231.469C185.701 230.981 186.239 230.607 186.897 230.347C187.56 230.081 188.327 229.949 189.198 229.949C189.804 229.949 190.384 230.02 190.938 230.162C191.497 230.304 191.992 230.524 192.423 230.822C192.858 231.121 193.201 231.504 193.452 231.973C193.703 232.437 193.829 232.993 193.829 233.642V241H190.96V239.487H190.874C190.699 239.828 190.465 240.129 190.171 240.389C189.878 240.645 189.525 240.846 189.113 240.993C188.701 241.135 188.225 241.206 187.685 241.206ZM188.552 239.118C188.997 239.118 189.39 239.03 189.731 238.855C190.072 238.675 190.339 238.434 190.533 238.131C190.728 237.828 190.825 237.484 190.825 237.101V235.943C190.73 236.005 190.6 236.062 190.434 236.114C190.273 236.161 190.091 236.206 189.887 236.249C189.683 236.286 189.48 236.322 189.276 236.355C189.073 236.384 188.888 236.41 188.722 236.433C188.367 236.485 188.057 236.568 187.792 236.682C187.527 236.795 187.321 236.949 187.174 237.143C187.027 237.333 186.954 237.57 186.954 237.854C186.954 238.266 187.103 238.58 187.401 238.798C187.704 239.011 188.088 239.118 188.552 239.118ZM201.091 245.318C200.111 245.318 199.27 245.183 198.57 244.913C197.874 244.648 197.32 244.286 196.908 243.827C196.496 243.367 196.228 242.851 196.105 242.278L198.903 241.902C198.989 242.12 199.124 242.323 199.308 242.513C199.493 242.702 199.737 242.854 200.04 242.967C200.348 243.086 200.722 243.145 201.162 243.145C201.82 243.145 202.362 242.984 202.788 242.662C203.219 242.345 203.435 241.812 203.435 241.064V239.068H203.307C203.174 239.371 202.975 239.658 202.71 239.928C202.445 240.197 202.104 240.418 201.688 240.588C201.271 240.759 200.774 240.844 200.196 240.844C199.377 240.844 198.631 240.654 197.959 240.276C197.291 239.892 196.759 239.307 196.361 238.521C195.968 237.731 195.771 236.732 195.771 235.524C195.771 234.288 195.973 233.256 196.375 232.428C196.777 231.599 197.313 230.979 197.98 230.567C198.652 230.155 199.389 229.949 200.189 229.949C200.8 229.949 201.311 230.053 201.723 230.261C202.135 230.465 202.466 230.721 202.717 231.028C202.973 231.331 203.17 231.63 203.307 231.923H203.42V230.091H206.425V241.107C206.425 242.035 206.197 242.811 205.743 243.436C205.288 244.061 204.659 244.53 203.854 244.842C203.054 245.16 202.133 245.318 201.091 245.318ZM201.155 238.571C201.643 238.571 202.054 238.45 202.391 238.209C202.732 237.963 202.992 237.612 203.172 237.158C203.357 236.698 203.449 236.149 203.449 235.51C203.449 234.871 203.359 234.317 203.179 233.848C202.999 233.375 202.739 233.008 202.398 232.747C202.057 232.487 201.643 232.357 201.155 232.357C200.658 232.357 200.239 232.491 199.898 232.761C199.557 233.027 199.299 233.396 199.124 233.869C198.948 234.343 198.861 234.89 198.861 235.51C198.861 236.14 198.948 236.684 199.124 237.143C199.304 237.598 199.562 237.951 199.898 238.202C200.239 238.448 200.658 238.571 201.155 238.571ZM213.804 241.213C212.682 241.213 211.716 240.986 210.906 240.531C210.101 240.072 209.481 239.423 209.045 238.585C208.61 237.742 208.392 236.746 208.392 235.595C208.392 234.473 208.61 233.488 209.045 232.641C209.481 231.793 210.094 231.133 210.885 230.659C211.68 230.186 212.613 229.949 213.683 229.949C214.403 229.949 215.073 230.065 215.693 230.297C216.318 230.524 216.863 230.867 217.327 231.327C217.795 231.786 218.16 232.364 218.42 233.06C218.681 233.751 218.811 234.561 218.811 235.489V236.32H209.599V234.445H215.963C215.963 234.009 215.868 233.623 215.679 233.287C215.49 232.951 215.227 232.688 214.891 232.499C214.559 232.304 214.173 232.207 213.733 232.207C213.274 232.207 212.866 232.314 212.511 232.527C212.161 232.735 211.886 233.017 211.688 233.372C211.489 233.723 211.387 234.113 211.382 234.544V236.327C211.382 236.866 211.482 237.333 211.68 237.726C211.884 238.119 212.17 238.422 212.54 238.635C212.909 238.848 213.347 238.955 213.854 238.955C214.19 238.955 214.498 238.907 214.777 238.812C215.056 238.718 215.295 238.576 215.494 238.386C215.693 238.197 215.845 237.965 215.949 237.69L218.747 237.875C218.605 238.547 218.314 239.134 217.874 239.636C217.438 240.134 216.875 240.522 216.183 240.801C215.497 241.076 214.704 241.213 213.804 241.213Z"
        fill="#A5A3A3" />
</svg>
    